<mxfile host="app.diagrams.net" modified="2022-01-20T08:23:11.858Z" agent="5.0 (Windows NT 10.0; Win64; x64) AppleWebKit/537.36 (KHTML, like Gecko) Chrome/97.0.4692.71 Safari/537.36" etag="HrZVSxEY7V6Jq6Fo_YAA" version="16.2.6" type="github">
  <diagram id="YilDh3PAvlAbY0U243uL" name="Page-1">
    <mxGraphModel dx="1964" dy="2360" grid="1" gridSize="10" guides="1" tooltips="1" connect="1" arrows="1" fold="1" page="0" pageScale="1" pageWidth="827" pageHeight="1169" math="0" shadow="0">
      <root>
        <mxCell id="0" />
        <mxCell id="1" parent="0" />
        <mxCell id="-pXGqylEfpOpcV__bSYs-3" value="信噪比因子" style="rounded=0;whiteSpace=wrap;html=1;" vertex="1" parent="1">
          <mxGeometry x="1230" y="-1002" width="80" height="40" as="geometry" />
        </mxCell>
        <mxCell id="-pXGqylEfpOpcV__bSYs-5" value="叶间互差因子" style="rounded=0;whiteSpace=wrap;html=1;" vertex="1" parent="1">
          <mxGeometry x="-90" y="-1000" width="80" height="40" as="geometry" />
        </mxCell>
        <mxCell id="-pXGqylEfpOpcV__bSYs-6" value="历史能量互差因子" style="rounded=0;whiteSpace=wrap;html=1;" vertex="1" parent="1">
          <mxGeometry x="10" y="-1000" width="80" height="40" as="geometry" />
        </mxCell>
        <mxCell id="-pXGqylEfpOpcV__bSYs-40" value="" style="edgeStyle=orthogonalEdgeStyle;rounded=0;orthogonalLoop=1;jettySize=auto;html=1;" edge="1" parent="1" source="-pXGqylEfpOpcV__bSYs-7" target="-pXGqylEfpOpcV__bSYs-33">
          <mxGeometry relative="1" as="geometry" />
        </mxCell>
        <mxCell id="-pXGqylEfpOpcV__bSYs-7" value="雷声因子（边缘端）" style="rounded=0;whiteSpace=wrap;html=1;fillColor=#f5f5f5;fontColor=#333333;strokeColor=#666666;" vertex="1" parent="1">
          <mxGeometry x="110" y="-1000" width="80" height="40" as="geometry" />
        </mxCell>
        <mxCell id="-pXGqylEfpOpcV__bSYs-8" value="能量互差因子" style="rounded=0;whiteSpace=wrap;html=1;" vertex="1" parent="1">
          <mxGeometry x="310" y="-1000" width="80" height="40" as="geometry" />
        </mxCell>
        <mxCell id="-pXGqylEfpOpcV__bSYs-9" value="哨声因子" style="rounded=0;whiteSpace=wrap;html=1;" vertex="1" parent="1">
          <mxGeometry x="414" y="-1000" width="80" height="40" as="geometry" />
        </mxCell>
        <mxCell id="-pXGqylEfpOpcV__bSYs-10" value="结冰因子" style="rounded=0;whiteSpace=wrap;html=1;" vertex="1" parent="1">
          <mxGeometry x="510" y="-1000" width="80" height="40" as="geometry" />
        </mxCell>
        <mxCell id="-pXGqylEfpOpcV__bSYs-41" value="" style="edgeStyle=orthogonalEdgeStyle;rounded=0;orthogonalLoop=1;jettySize=auto;html=1;" edge="1" parent="1" source="-pXGqylEfpOpcV__bSYs-11" target="-pXGqylEfpOpcV__bSYs-12">
          <mxGeometry relative="1" as="geometry" />
        </mxCell>
        <mxCell id="-pXGqylEfpOpcV__bSYs-11" value="落冰因子（边缘端）" style="rounded=0;whiteSpace=wrap;html=1;fillColor=#f5f5f5;fontColor=#333333;strokeColor=#666666;" vertex="1" parent="1">
          <mxGeometry x="610" y="-1000" width="80" height="40" as="geometry" />
        </mxCell>
        <mxCell id="-pXGqylEfpOpcV__bSYs-12" value="落冰因子（服务端）" style="rounded=0;whiteSpace=wrap;html=1;" vertex="1" parent="1">
          <mxGeometry x="720" y="-1000" width="80" height="40" as="geometry" />
        </mxCell>
        <mxCell id="-pXGqylEfpOpcV__bSYs-13" value="螺栓断裂因子" style="rounded=0;whiteSpace=wrap;html=1;" vertex="1" parent="1">
          <mxGeometry x="830" y="-1000" width="80" height="40" as="geometry" />
        </mxCell>
        <mxCell id="-pXGqylEfpOpcV__bSYs-14" value="螺栓掉落因子" style="rounded=0;whiteSpace=wrap;html=1;" vertex="1" parent="1">
          <mxGeometry x="1130" y="-1000" width="80" height="40" as="geometry" />
        </mxCell>
        <mxCell id="-pXGqylEfpOpcV__bSYs-101" value="" style="edgeStyle=orthogonalEdgeStyle;rounded=0;orthogonalLoop=1;jettySize=auto;html=1;fontSize=18;" edge="1" parent="1" source="-pXGqylEfpOpcV__bSYs-15" target="-pXGqylEfpOpcV__bSYs-99">
          <mxGeometry relative="1" as="geometry" />
        </mxCell>
        <mxCell id="-pXGqylEfpOpcV__bSYs-15" value="叶片扫塔（边缘端）" style="rounded=0;whiteSpace=wrap;html=1;fillColor=#f5f5f5;fontColor=#333333;strokeColor=#666666;" vertex="1" parent="1">
          <mxGeometry x="940" y="-1000" width="80" height="40" as="geometry" />
        </mxCell>
        <mxCell id="-pXGqylEfpOpcV__bSYs-16" value="&lt;b&gt;&lt;span style=&quot;font-size: 10.5pt&quot;&gt;雷击损伤&lt;/span&gt;&lt;/b&gt;" style="rounded=0;whiteSpace=wrap;html=1;" vertex="1" parent="1">
          <mxGeometry x="117" y="-822" width="80" height="40" as="geometry" />
        </mxCell>
        <mxCell id="-pXGqylEfpOpcV__bSYs-17" value="&lt;b&gt;&lt;span style=&quot;font-size: 10.5pt&quot;&gt;排水孔堵塞&lt;/span&gt;&lt;/b&gt;" style="rounded=0;whiteSpace=wrap;html=1;" vertex="1" parent="1">
          <mxGeometry x="327" y="-822" width="80" height="40" as="geometry" />
        </mxCell>
        <mxCell id="-pXGqylEfpOpcV__bSYs-18" value="&lt;b&gt;&lt;span style=&quot;font-size: 10.5pt&quot;&gt;非雷击前后缘开裂或附件掉落&lt;/span&gt;&lt;/b&gt;" style="rounded=0;whiteSpace=wrap;html=1;" vertex="1" parent="1">
          <mxGeometry x="429" y="-822" width="106" height="40" as="geometry" />
        </mxCell>
        <mxCell id="-pXGqylEfpOpcV__bSYs-19" value="&lt;b&gt;&lt;span style=&quot;font-size: 10.5pt&quot;&gt;螺栓断裂&lt;/span&gt;&lt;/b&gt;" style="rounded=0;whiteSpace=wrap;html=1;" vertex="1" parent="1">
          <mxGeometry x="977" y="-821" width="80" height="40" as="geometry" />
        </mxCell>
        <mxCell id="-pXGqylEfpOpcV__bSYs-20" value="&lt;b&gt;&lt;span style=&quot;font-size: 10.5pt&quot;&gt;叶片结冰&lt;/span&gt;&lt;/b&gt;" style="rounded=0;whiteSpace=wrap;html=1;" vertex="1" parent="1">
          <mxGeometry x="756" y="-821" width="80" height="40" as="geometry" />
        </mxCell>
        <mxCell id="-pXGqylEfpOpcV__bSYs-21" value="&lt;b&gt;&lt;span style=&quot;font-size: 10.5pt&quot;&gt;叶片扫塔&lt;/span&gt;&lt;/b&gt;" style="rounded=0;whiteSpace=wrap;html=1;" vertex="1" parent="1">
          <mxGeometry x="1087" y="-821" width="80" height="40" as="geometry" />
        </mxCell>
        <mxCell id="-pXGqylEfpOpcV__bSYs-22" value="&lt;b&gt;&lt;span style=&quot;font-size: 10.5pt&quot;&gt;前缘腐蚀&lt;/span&gt;&lt;/b&gt;" style="rounded=0;whiteSpace=wrap;html=1;" vertex="1" parent="1">
          <mxGeometry x="227" y="-822" width="80" height="40" as="geometry" />
        </mxCell>
        <mxCell id="-pXGqylEfpOpcV__bSYs-23" value="&lt;b&gt;&lt;span style=&quot;font-size: 10.5pt&quot;&gt;螺栓掉落&lt;/span&gt;&lt;/b&gt;" style="rounded=0;whiteSpace=wrap;html=1;" vertex="1" parent="1">
          <mxGeometry x="1197" y="-821" width="80" height="40" as="geometry" />
        </mxCell>
        <mxCell id="-pXGqylEfpOpcV__bSYs-24" value="&lt;font style=&quot;font-size: 18px&quot;&gt;&lt;b&gt;叶片整体健康度&lt;/b&gt;&lt;/font&gt;" style="rounded=0;whiteSpace=wrap;html=1;" vertex="1" parent="1">
          <mxGeometry x="570" y="-770" width="160" height="70" as="geometry" />
        </mxCell>
        <mxCell id="-pXGqylEfpOpcV__bSYs-26" value="&lt;font style=&quot;font-size: 14px&quot;&gt;&lt;b&gt;落雷密度计算&lt;/b&gt;&lt;/font&gt;" style="rounded=0;whiteSpace=wrap;html=1;" vertex="1" parent="1">
          <mxGeometry x="-14" y="-821" width="100" height="40" as="geometry" />
        </mxCell>
        <mxCell id="-pXGqylEfpOpcV__bSYs-27" value="&lt;span&gt;Mongo库数据（包含音频和部分scada数据）&lt;/span&gt;" style="rounded=1;whiteSpace=wrap;html=1;" vertex="1" parent="1">
          <mxGeometry x="370" y="-1285" width="420" height="40" as="geometry" />
        </mxCell>
        <mxCell id="-pXGqylEfpOpcV__bSYs-28" value="音频" style="rounded=1;whiteSpace=wrap;html=1;" vertex="1" parent="1">
          <mxGeometry x="160" y="-1285" width="100" height="40" as="geometry" />
        </mxCell>
        <mxCell id="-pXGqylEfpOpcV__bSYs-31" value="边缘端" style="text;html=1;strokeColor=none;fillColor=none;align=center;verticalAlign=middle;whiteSpace=wrap;rounded=0;" vertex="1" parent="1">
          <mxGeometry x="185" y="-1315" width="60" height="30" as="geometry" />
        </mxCell>
        <mxCell id="-pXGqylEfpOpcV__bSYs-32" value="服务端" style="text;html=1;strokeColor=none;fillColor=none;align=center;verticalAlign=middle;whiteSpace=wrap;rounded=0;" vertex="1" parent="1">
          <mxGeometry x="550" y="-1304.5" width="60" height="9" as="geometry" />
        </mxCell>
        <mxCell id="-pXGqylEfpOpcV__bSYs-33" value="雷声因子（服务端）" style="rounded=0;whiteSpace=wrap;html=1;" vertex="1" parent="1">
          <mxGeometry x="220" y="-1000" width="80" height="40" as="geometry" />
        </mxCell>
        <mxCell id="-pXGqylEfpOpcV__bSYs-34" value="&lt;b&gt;&lt;font style=&quot;font-size: 18px&quot;&gt;失效模式判断&lt;/font&gt;&lt;/b&gt;" style="text;html=1;strokeColor=none;fillColor=none;align=center;verticalAlign=middle;whiteSpace=wrap;rounded=0;" vertex="1" parent="1">
          <mxGeometry x="-294.5" y="-817" width="130" height="30" as="geometry" />
        </mxCell>
        <mxCell id="-pXGqylEfpOpcV__bSYs-35" value="&lt;b&gt;&lt;font style=&quot;font-size: 18px&quot;&gt;失效因子计算&lt;/font&gt;&lt;/b&gt;" style="text;html=1;strokeColor=none;fillColor=none;align=center;verticalAlign=middle;whiteSpace=wrap;rounded=0;" vertex="1" parent="1">
          <mxGeometry x="-294.5" y="-997" width="140" height="30" as="geometry" />
        </mxCell>
        <mxCell id="-pXGqylEfpOpcV__bSYs-36" value="&lt;b&gt;&lt;font style=&quot;font-size: 18px&quot;&gt;数据源&lt;/font&gt;&lt;/b&gt;" style="text;html=1;strokeColor=none;fillColor=none;align=center;verticalAlign=middle;whiteSpace=wrap;rounded=0;" vertex="1" parent="1">
          <mxGeometry x="-302.5" y="-1268" width="100" height="30" as="geometry" />
        </mxCell>
        <mxCell id="-pXGqylEfpOpcV__bSYs-43" value="" style="curved=1;endArrow=classic;html=1;rounded=0;entryX=0.75;entryY=0;entryDx=0;entryDy=0;exitX=0.25;exitY=1;exitDx=0;exitDy=0;" edge="1" parent="1" source="-pXGqylEfpOpcV__bSYs-8" target="-pXGqylEfpOpcV__bSYs-16">
          <mxGeometry width="50" height="50" relative="1" as="geometry">
            <mxPoint x="360" y="-880" as="sourcePoint" />
            <mxPoint x="100" y="-910" as="targetPoint" />
            <Array as="points">
              <mxPoint x="320" y="-940" />
              <mxPoint x="200" y="-910" />
              <mxPoint x="177" y="-890" />
            </Array>
          </mxGeometry>
        </mxCell>
        <mxCell id="-pXGqylEfpOpcV__bSYs-45" value="" style="curved=1;endArrow=classic;html=1;rounded=0;exitX=0;exitY=0.25;exitDx=0;exitDy=0;entryX=0.25;entryY=0;entryDx=0;entryDy=0;" edge="1" parent="1" source="-pXGqylEfpOpcV__bSYs-64" target="-pXGqylEfpOpcV__bSYs-16">
          <mxGeometry width="50" height="50" relative="1" as="geometry">
            <mxPoint x="60" y="-920" as="sourcePoint" />
            <mxPoint x="10" y="-840" as="targetPoint" />
            <Array as="points">
              <mxPoint x="157" y="-920" />
              <mxPoint x="137" y="-860" />
            </Array>
          </mxGeometry>
        </mxCell>
        <mxCell id="-pXGqylEfpOpcV__bSYs-46" value="" style="curved=1;endArrow=classic;html=1;rounded=0;exitX=0.5;exitY=1;exitDx=0;exitDy=0;entryX=0.5;entryY=0;entryDx=0;entryDy=0;" edge="1" parent="1" source="-pXGqylEfpOpcV__bSYs-6" target="-pXGqylEfpOpcV__bSYs-22">
          <mxGeometry width="50" height="50" relative="1" as="geometry">
            <mxPoint x="80" y="-640" as="sourcePoint" />
            <mxPoint x="130" y="-690" as="targetPoint" />
            <Array as="points">
              <mxPoint x="150" y="-870" />
              <mxPoint x="250" y="-880" />
            </Array>
          </mxGeometry>
        </mxCell>
        <mxCell id="-pXGqylEfpOpcV__bSYs-47" value="" style="curved=1;endArrow=classic;html=1;rounded=0;entryX=0.5;entryY=0;entryDx=0;entryDy=0;" edge="1" parent="1" target="-pXGqylEfpOpcV__bSYs-26">
          <mxGeometry width="50" height="50" relative="1" as="geometry">
            <mxPoint x="240" y="-960" as="sourcePoint" />
            <mxPoint x="229" y="-850" as="targetPoint" />
            <Array as="points">
              <mxPoint x="170" y="-890" />
              <mxPoint x="30" y="-880" />
            </Array>
          </mxGeometry>
        </mxCell>
        <mxCell id="-pXGqylEfpOpcV__bSYs-48" value="" style="curved=1;endArrow=classic;html=1;rounded=0;entryX=0.5;entryY=0;entryDx=0;entryDy=0;" edge="1" parent="1" target="-pXGqylEfpOpcV__bSYs-17">
          <mxGeometry width="50" height="50" relative="1" as="geometry">
            <mxPoint x="450" y="-960" as="sourcePoint" />
            <mxPoint x="510" y="-880" as="targetPoint" />
            <Array as="points">
              <mxPoint x="460" y="-930" />
              <mxPoint x="367" y="-900" />
            </Array>
          </mxGeometry>
        </mxCell>
        <mxCell id="-pXGqylEfpOpcV__bSYs-49" value="" style="curved=1;endArrow=classic;html=1;rounded=0;entryX=0.601;entryY=-0.017;entryDx=0;entryDy=0;exitX=0.25;exitY=1;exitDx=0;exitDy=0;entryPerimeter=0;" edge="1" parent="1" source="-pXGqylEfpOpcV__bSYs-8" target="-pXGqylEfpOpcV__bSYs-18">
          <mxGeometry width="50" height="50" relative="1" as="geometry">
            <mxPoint x="350" y="-960" as="sourcePoint" />
            <mxPoint x="370" y="-850" as="targetPoint" />
            <Array as="points">
              <mxPoint x="340" y="-950" />
              <mxPoint x="370" y="-900" />
              <mxPoint x="482" y="-870" />
            </Array>
          </mxGeometry>
        </mxCell>
        <mxCell id="-pXGqylEfpOpcV__bSYs-50" value="" style="curved=1;endArrow=classic;html=1;rounded=0;exitX=0.5;exitY=1;exitDx=0;exitDy=0;entryX=0.25;entryY=0;entryDx=0;entryDy=0;" edge="1" parent="1" source="-pXGqylEfpOpcV__bSYs-33" target="-pXGqylEfpOpcV__bSYs-18">
          <mxGeometry width="50" height="50" relative="1" as="geometry">
            <mxPoint x="150" y="-640" as="sourcePoint" />
            <mxPoint x="340" y="-840" as="targetPoint" />
            <Array as="points">
              <mxPoint x="370" y="-880" />
              <mxPoint x="450" y="-860" />
            </Array>
          </mxGeometry>
        </mxCell>
        <mxCell id="-pXGqylEfpOpcV__bSYs-51" value="" style="curved=1;endArrow=classic;html=1;rounded=0;entryX=0.5;entryY=0;entryDx=0;entryDy=0;exitX=0.5;exitY=1;exitDx=0;exitDy=0;" edge="1" parent="1" source="-pXGqylEfpOpcV__bSYs-13" target="-pXGqylEfpOpcV__bSYs-19">
          <mxGeometry width="50" height="50" relative="1" as="geometry">
            <mxPoint x="480" y="-861" as="sourcePoint" />
            <mxPoint x="600" y="-821" as="targetPoint" />
            <Array as="points">
              <mxPoint x="1017" y="-910" />
            </Array>
          </mxGeometry>
        </mxCell>
        <mxCell id="-pXGqylEfpOpcV__bSYs-52" value="" style="curved=1;endArrow=classic;html=1;rounded=0;entryX=0.5;entryY=0;entryDx=0;entryDy=0;exitX=0.5;exitY=1;exitDx=0;exitDy=0;" edge="1" parent="1" source="-pXGqylEfpOpcV__bSYs-14" target="-pXGqylEfpOpcV__bSYs-23">
          <mxGeometry width="50" height="50" relative="1" as="geometry">
            <mxPoint x="620" y="-860" as="sourcePoint" />
            <mxPoint x="480" y="-811" as="targetPoint" />
            <Array as="points" />
          </mxGeometry>
        </mxCell>
        <mxCell id="-pXGqylEfpOpcV__bSYs-53" value="" style="curved=1;endArrow=classic;html=1;rounded=0;entryX=0.75;entryY=0;entryDx=0;entryDy=0;exitX=0.5;exitY=1;exitDx=0;exitDy=0;" edge="1" parent="1" source="-pXGqylEfpOpcV__bSYs-99" target="-pXGqylEfpOpcV__bSYs-21">
          <mxGeometry width="50" height="50" relative="1" as="geometry">
            <mxPoint x="1020" y="-960" as="sourcePoint" />
            <mxPoint x="670" y="-821" as="targetPoint" />
            <Array as="points" />
          </mxGeometry>
        </mxCell>
        <mxCell id="-pXGqylEfpOpcV__bSYs-54" value="&lt;b&gt;&lt;span style=&quot;font-size: 10.5pt&quot;&gt;叶片落冰&lt;/span&gt;&lt;/b&gt;" style="rounded=0;whiteSpace=wrap;html=1;" vertex="1" parent="1">
          <mxGeometry x="867" y="-821" width="80" height="40" as="geometry" />
        </mxCell>
        <mxCell id="-pXGqylEfpOpcV__bSYs-55" value="" style="curved=1;endArrow=classic;html=1;rounded=0;entryX=0.5;entryY=0;entryDx=0;entryDy=0;exitX=0.5;exitY=1;exitDx=0;exitDy=0;" edge="1" parent="1" target="-pXGqylEfpOpcV__bSYs-54">
          <mxGeometry width="50" height="50" relative="1" as="geometry">
            <mxPoint x="760" y="-960" as="sourcePoint" />
            <mxPoint x="690" y="-830" as="targetPoint" />
            <Array as="points">
              <mxPoint x="810" y="-920" />
              <mxPoint x="860" y="-890" />
              <mxPoint x="900" y="-860" />
            </Array>
          </mxGeometry>
        </mxCell>
        <mxCell id="-pXGqylEfpOpcV__bSYs-56" value="" style="curved=1;endArrow=classic;html=1;rounded=0;entryX=0.5;entryY=0;entryDx=0;entryDy=0;exitX=0.5;exitY=1;exitDx=0;exitDy=0;" edge="1" parent="1" target="-pXGqylEfpOpcV__bSYs-20">
          <mxGeometry width="50" height="50" relative="1" as="geometry">
            <mxPoint x="550" y="-960" as="sourcePoint" />
            <mxPoint x="390" y="-821" as="targetPoint" />
            <Array as="points">
              <mxPoint x="650" y="-920" />
              <mxPoint x="720" y="-880" />
              <mxPoint x="800" y="-860" />
            </Array>
          </mxGeometry>
        </mxCell>
        <mxCell id="-pXGqylEfpOpcV__bSYs-57" value="" style="curved=1;endArrow=classic;html=1;rounded=0;entryX=0.25;entryY=0;entryDx=0;entryDy=0;exitX=1;exitY=1;exitDx=0;exitDy=0;" edge="1" parent="1" source="-pXGqylEfpOpcV__bSYs-8" target="-pXGqylEfpOpcV__bSYs-21">
          <mxGeometry width="50" height="50" relative="1" as="geometry">
            <mxPoint x="370" y="-960" as="sourcePoint" />
            <mxPoint x="400" y="-821" as="targetPoint" />
            <Array as="points">
              <mxPoint x="400" y="-940" />
              <mxPoint x="460" y="-910" />
              <mxPoint x="790" y="-880" />
              <mxPoint x="940" y="-870" />
              <mxPoint x="1060" y="-870" />
            </Array>
          </mxGeometry>
        </mxCell>
        <mxCell id="-pXGqylEfpOpcV__bSYs-58" value="" style="curved=1;endArrow=classic;html=1;rounded=0;exitX=0.75;exitY=1;exitDx=0;exitDy=0;entryX=0.5;entryY=0;entryDx=0;entryDy=0;" edge="1" parent="1" source="-pXGqylEfpOpcV__bSYs-33" target="-pXGqylEfpOpcV__bSYs-21">
          <mxGeometry width="50" height="50" relative="1" as="geometry">
            <mxPoint x="360" y="-950" as="sourcePoint" />
            <mxPoint x="820" y="-830" as="targetPoint" />
            <Array as="points">
              <mxPoint x="350" y="-940" />
              <mxPoint x="410" y="-900" />
              <mxPoint x="670" y="-920" />
              <mxPoint x="900" y="-880" />
              <mxPoint x="1070" y="-910" />
            </Array>
          </mxGeometry>
        </mxCell>
        <mxCell id="-pXGqylEfpOpcV__bSYs-61" value="&lt;span lang=&quot;EN-US&quot; style=&quot;font-size: 10.5pt&quot;&gt;λ&lt;/span&gt;" style="text;html=1;strokeColor=none;fillColor=none;align=center;verticalAlign=middle;whiteSpace=wrap;rounded=0;fontSize=14;" vertex="1" parent="1">
          <mxGeometry x="-58" y="-958" width="20" height="10" as="geometry" />
        </mxCell>
        <mxCell id="-pXGqylEfpOpcV__bSYs-62" value="&lt;p class=&quot;MsoNormal&quot; align=&quot;center&quot;&gt;&lt;span lang=&quot;EN-US&quot; style=&quot;font-family: &amp;#34;times new roman&amp;#34; , serif&quot;&gt;η&lt;/span&gt;&lt;/p&gt;" style="text;html=1;strokeColor=none;fillColor=none;align=center;verticalAlign=middle;whiteSpace=wrap;rounded=0;fontSize=14;" vertex="1" parent="1">
          <mxGeometry x="1251" y="-963" width="40" height="15" as="geometry" />
        </mxCell>
        <mxCell id="-pXGqylEfpOpcV__bSYs-63" value="&lt;p class=&quot;MsoNormal&quot; align=&quot;center&quot;&gt;&lt;span lang=&quot;EN-US&quot; style=&quot;font-family: &amp;#34;times new roman&amp;#34; , serif&quot;&gt;γ&lt;/span&gt;&lt;/p&gt;" style="text;html=1;strokeColor=none;fillColor=none;align=center;verticalAlign=middle;whiteSpace=wrap;rounded=0;fontSize=14;" vertex="1" parent="1">
          <mxGeometry x="29" y="-961" width="41" height="20" as="geometry" />
        </mxCell>
        <mxCell id="-pXGqylEfpOpcV__bSYs-64" value="&lt;p class=&quot;MsoNormal&quot; align=&quot;center&quot;&gt;&lt;span lang=&quot;EN-US&quot; style=&quot;font-family: &amp;#34;times new roman&amp;#34; , serif&quot;&gt;β&lt;/span&gt;&lt;/p&gt;" style="text;html=1;strokeColor=none;fillColor=none;align=center;verticalAlign=middle;whiteSpace=wrap;rounded=0;fontSize=14;" vertex="1" parent="1">
          <mxGeometry x="230" y="-967" width="50" height="30" as="geometry" />
        </mxCell>
        <mxCell id="-pXGqylEfpOpcV__bSYs-65" value="&lt;p class=&quot;MsoNormal&quot; align=&quot;center&quot;&gt;&lt;span lang=&quot;EN-US&quot; style=&quot;font-size: 10.5pt ; font-family: &amp;#34;times new roman&amp;#34; , serif&quot;&gt;α&lt;/span&gt;&lt;br&gt;&lt;/p&gt;" style="text;html=1;strokeColor=none;fillColor=none;align=center;verticalAlign=middle;whiteSpace=wrap;rounded=0;fontSize=14;" vertex="1" parent="1">
          <mxGeometry x="338" y="-958" width="20" height="10" as="geometry" />
        </mxCell>
        <mxCell id="-pXGqylEfpOpcV__bSYs-66" value="&lt;p class=&quot;MsoNormal&quot; align=&quot;center&quot;&gt;&lt;span lang=&quot;EN-US&quot; style=&quot;font-family: &amp;#34;times new roman&amp;#34; , serif&quot;&gt;δ&lt;/span&gt;&lt;/p&gt;" style="text;html=1;strokeColor=none;fillColor=none;align=center;verticalAlign=middle;whiteSpace=wrap;rounded=0;fontSize=14;" vertex="1" parent="1">
          <mxGeometry x="425" y="-957" width="36" height="13" as="geometry" />
        </mxCell>
        <mxCell id="-pXGqylEfpOpcV__bSYs-67" value="&lt;p class=&quot;MsoNormal&quot; align=&quot;center&quot;&gt;&lt;span lang=&quot;EN-US&quot; style=&quot;font-family: &amp;#34;times new roman&amp;#34; , serif&quot;&gt;θ&lt;/span&gt;&lt;/p&gt;" style="text;html=1;strokeColor=none;fillColor=none;align=center;verticalAlign=middle;whiteSpace=wrap;rounded=0;fontSize=14;" vertex="1" parent="1">
          <mxGeometry x="521" y="-965" width="50" height="30" as="geometry" />
        </mxCell>
        <mxCell id="-pXGqylEfpOpcV__bSYs-69" value="&lt;p class=&quot;MsoNormal&quot; align=&quot;center&quot;&gt;&lt;span lang=&quot;EN-US&quot; style=&quot;font-family: &amp;#34;times new roman&amp;#34; , serif&quot;&gt;μ&lt;/span&gt;&lt;/p&gt;" style="text;html=1;strokeColor=none;fillColor=none;align=center;verticalAlign=middle;whiteSpace=wrap;rounded=0;fontSize=14;" vertex="1" parent="1">
          <mxGeometry x="842" y="-966" width="50" height="30" as="geometry" />
        </mxCell>
        <mxCell id="-pXGqylEfpOpcV__bSYs-70" value="&lt;p class=&quot;MsoNormal&quot; align=&quot;center&quot;&gt;&lt;span lang=&quot;EN-US&quot; style=&quot;font-size: 10.5pt ; font-family: &amp;#34;times new roman&amp;#34; , serif&quot;&gt;Φ&lt;/span&gt;&lt;br&gt;&lt;/p&gt;" style="text;html=1;strokeColor=none;fillColor=none;align=center;verticalAlign=middle;whiteSpace=wrap;rounded=0;fontSize=14;" vertex="1" parent="1">
          <mxGeometry x="1050" y="-967" width="50" height="30" as="geometry" />
        </mxCell>
        <mxCell id="-pXGqylEfpOpcV__bSYs-71" value="&lt;p class=&quot;MsoNormal&quot; align=&quot;center&quot;&gt;&lt;span style=&quot;font-size: 11pt&quot;&gt;Ψ&lt;/span&gt;&lt;br&gt;&lt;/p&gt;" style="text;html=1;strokeColor=none;fillColor=none;align=center;verticalAlign=middle;whiteSpace=wrap;rounded=0;fontSize=14;" vertex="1" parent="1">
          <mxGeometry x="1141" y="-962" width="50" height="30" as="geometry" />
        </mxCell>
        <mxCell id="-pXGqylEfpOpcV__bSYs-75" value="" style="curved=1;endArrow=classic;html=1;rounded=0;fontSize=14;entryX=0.663;entryY=-0.01;entryDx=0;entryDy=0;entryPerimeter=0;" edge="1" parent="1" target="-pXGqylEfpOpcV__bSYs-24">
          <mxGeometry width="50" height="50" relative="1" as="geometry">
            <mxPoint x="870" y="-960" as="sourcePoint" />
            <mxPoint x="1130" y="-830" as="targetPoint" />
            <Array as="points">
              <mxPoint x="840" y="-940" />
              <mxPoint x="810" y="-930" />
              <mxPoint x="670" y="-920" />
            </Array>
          </mxGeometry>
        </mxCell>
        <mxCell id="-pXGqylEfpOpcV__bSYs-76" value="" style="curved=1;endArrow=classic;html=1;rounded=0;fontSize=14;exitX=0.5;exitY=1;exitDx=0;exitDy=0;" edge="1" parent="1" source="-pXGqylEfpOpcV__bSYs-14">
          <mxGeometry width="50" height="50" relative="1" as="geometry">
            <mxPoint x="880" y="-950" as="sourcePoint" />
            <mxPoint x="700" y="-770" as="targetPoint" />
            <Array as="points">
              <mxPoint x="940" y="-900" />
              <mxPoint x="680" y="-900" />
            </Array>
          </mxGeometry>
        </mxCell>
        <mxCell id="-pXGqylEfpOpcV__bSYs-77" value="" style="curved=1;endArrow=classic;html=1;rounded=0;entryX=0.5;entryY=0;entryDx=0;entryDy=0;" edge="1" parent="1" target="-pXGqylEfpOpcV__bSYs-24">
          <mxGeometry width="50" height="50" relative="1" as="geometry">
            <mxPoint x="546" y="-960" as="sourcePoint" />
            <mxPoint x="621" y="-811" as="targetPoint" />
            <Array as="points">
              <mxPoint x="660" y="-870" />
            </Array>
          </mxGeometry>
        </mxCell>
        <mxCell id="-pXGqylEfpOpcV__bSYs-78" value="" style="curved=1;endArrow=classic;html=1;rounded=0;entryX=0.148;entryY=-0.01;entryDx=0;entryDy=0;entryPerimeter=0;exitX=0.75;exitY=1;exitDx=0;exitDy=0;" edge="1" parent="1" source="-pXGqylEfpOpcV__bSYs-8" target="-pXGqylEfpOpcV__bSYs-24">
          <mxGeometry width="50" height="50" relative="1" as="geometry">
            <mxPoint x="350" y="-960" as="sourcePoint" />
            <mxPoint x="382.5" y="-812" as="targetPoint" />
            <Array as="points">
              <mxPoint x="410" y="-900" />
              <mxPoint x="510" y="-860" />
              <mxPoint x="590" y="-830" />
            </Array>
          </mxGeometry>
        </mxCell>
        <mxCell id="-pXGqylEfpOpcV__bSYs-79" value="" style="curved=1;endArrow=classic;html=1;rounded=0;entryX=0.406;entryY=-0.01;entryDx=0;entryDy=0;entryPerimeter=0;" edge="1" parent="1" target="-pXGqylEfpOpcV__bSYs-24">
          <mxGeometry width="50" height="50" relative="1" as="geometry">
            <mxPoint x="60" y="-960" as="sourcePoint" />
            <mxPoint x="141" y="-812" as="targetPoint" />
            <Array as="points">
              <mxPoint x="350" y="-880" />
              <mxPoint x="440" y="-870" />
              <mxPoint x="570" y="-890" />
              <mxPoint x="635" y="-840" />
            </Array>
          </mxGeometry>
        </mxCell>
        <mxCell id="-pXGqylEfpOpcV__bSYs-80" value="" style="curved=1;endArrow=classic;html=1;rounded=0;entryX=0.25;entryY=0;entryDx=0;entryDy=0;exitX=0.575;exitY=1;exitDx=0;exitDy=0;exitPerimeter=0;" edge="1" parent="1" source="-pXGqylEfpOpcV__bSYs-9" target="-pXGqylEfpOpcV__bSYs-24">
          <mxGeometry width="50" height="50" relative="1" as="geometry">
            <mxPoint x="460" y="-950" as="sourcePoint" />
            <mxPoint x="241" y="-812" as="targetPoint" />
            <Array as="points">
              <mxPoint x="470" y="-920" />
              <mxPoint x="600" y="-860" />
            </Array>
          </mxGeometry>
        </mxCell>
        <mxCell id="-pXGqylEfpOpcV__bSYs-90" value="" style="curved=1;endArrow=classic;html=1;rounded=0;fontSize=18;entryX=0.5;entryY=0;entryDx=0;entryDy=0;exitX=0.25;exitY=1;exitDx=0;exitDy=0;" edge="1" parent="1" source="-pXGqylEfpOpcV__bSYs-28" target="-pXGqylEfpOpcV__bSYs-7">
          <mxGeometry width="50" height="50" relative="1" as="geometry">
            <mxPoint x="190" y="-1240" as="sourcePoint" />
            <mxPoint x="397.28" y="-1077" as="targetPoint" />
            <Array as="points">
              <mxPoint x="170" y="-1180" />
            </Array>
          </mxGeometry>
        </mxCell>
        <mxCell id="-pXGqylEfpOpcV__bSYs-91" value="" style="curved=1;endArrow=classic;html=1;rounded=0;fontSize=18;entryX=0.5;entryY=0;entryDx=0;entryDy=0;exitX=0.5;exitY=1;exitDx=0;exitDy=0;" edge="1" parent="1" source="-pXGqylEfpOpcV__bSYs-28" target="-pXGqylEfpOpcV__bSYs-11">
          <mxGeometry width="50" height="50" relative="1" as="geometry">
            <mxPoint x="370" y="-1240" as="sourcePoint" />
            <mxPoint x="160" y="-990" as="targetPoint" />
            <Array as="points">
              <mxPoint x="235" y="-1160" />
              <mxPoint x="340" y="-1100" />
              <mxPoint x="560" y="-1050" />
              <mxPoint x="660" y="-1060" />
            </Array>
          </mxGeometry>
        </mxCell>
        <mxCell id="-pXGqylEfpOpcV__bSYs-92" value="" style="curved=1;endArrow=classic;html=1;rounded=0;fontSize=18;" edge="1" parent="1">
          <mxGeometry width="50" height="50" relative="1" as="geometry">
            <mxPoint x="530" y="-1243" as="sourcePoint" />
            <mxPoint x="530" y="-1163" as="targetPoint" />
            <Array as="points" />
          </mxGeometry>
        </mxCell>
        <mxCell id="-pXGqylEfpOpcV__bSYs-95" value="" style="curved=1;endArrow=classic;html=1;rounded=0;fontSize=18;exitX=0.75;exitY=1;exitDx=0;exitDy=0;entryX=0.25;entryY=0;entryDx=0;entryDy=0;" edge="1" parent="1" source="-pXGqylEfpOpcV__bSYs-4" target="-pXGqylEfpOpcV__bSYs-3">
          <mxGeometry width="50" height="50" relative="1" as="geometry">
            <mxPoint x="510" y="-1148" as="sourcePoint" />
            <mxPoint x="409" y="-1093" as="targetPoint" />
            <Array as="points">
              <mxPoint x="570" y="-1070" />
              <mxPoint x="980" y="-1080" />
              <mxPoint x="1140" y="-1090" />
            </Array>
          </mxGeometry>
        </mxCell>
        <mxCell id="-pXGqylEfpOpcV__bSYs-97" value="" style="curved=1;endArrow=classic;html=1;rounded=0;fontSize=18;exitX=0.25;exitY=1;exitDx=0;exitDy=0;" edge="1" parent="1" source="-pXGqylEfpOpcV__bSYs-4">
          <mxGeometry width="50" height="50" relative="1" as="geometry">
            <mxPoint x="470" y="-1147" as="sourcePoint" />
            <mxPoint x="60" y="-1000" as="targetPoint" />
            <Array as="points">
              <mxPoint x="460" y="-1090" />
              <mxPoint x="250" y="-1100" />
            </Array>
          </mxGeometry>
        </mxCell>
        <mxCell id="-pXGqylEfpOpcV__bSYs-98" value="" style="curved=1;endArrow=classic;html=1;rounded=0;fontSize=18;exitX=0.25;exitY=1;exitDx=0;exitDy=0;" edge="1" parent="1" source="-pXGqylEfpOpcV__bSYs-4">
          <mxGeometry width="50" height="50" relative="1" as="geometry">
            <mxPoint x="490" y="-1150" as="sourcePoint" />
            <mxPoint x="-40" y="-1005" as="targetPoint" />
            <Array as="points">
              <mxPoint x="460" y="-1080" />
              <mxPoint x="330" y="-1060" />
              <mxPoint x="130" y="-1140" />
            </Array>
          </mxGeometry>
        </mxCell>
        <mxCell id="-pXGqylEfpOpcV__bSYs-99" value="叶片扫塔因子（服务端）" style="rounded=0;whiteSpace=wrap;html=1;" vertex="1" parent="1">
          <mxGeometry x="1040" y="-1000" width="80" height="40" as="geometry" />
        </mxCell>
        <mxCell id="-pXGqylEfpOpcV__bSYs-102" value="" style="curved=1;endArrow=classic;html=1;rounded=0;fontSize=18;entryX=0.4;entryY=-0.033;entryDx=0;entryDy=0;entryPerimeter=0;exitX=0.75;exitY=1;exitDx=0;exitDy=0;" edge="1" parent="1" source="-pXGqylEfpOpcV__bSYs-28" target="-pXGqylEfpOpcV__bSYs-15">
          <mxGeometry width="50" height="50" relative="1" as="geometry">
            <mxPoint x="240" y="-1240" as="sourcePoint" />
            <mxPoint x="660" y="-990" as="targetPoint" />
            <Array as="points">
              <mxPoint x="260" y="-1200" />
              <mxPoint x="350" y="-1200" />
              <mxPoint x="460" y="-1200" />
              <mxPoint x="740" y="-1220" />
              <mxPoint x="800" y="-1160" />
              <mxPoint x="870" y="-1110" />
            </Array>
          </mxGeometry>
        </mxCell>
        <mxCell id="-pXGqylEfpOpcV__bSYs-103" value="&lt;font style=&quot;font-size: 12px&quot;&gt;叶片的能量矩阵&lt;/font&gt;" style="text;whiteSpace=wrap;html=1;fontSize=18;" vertex="1" parent="1">
          <mxGeometry x="-10" y="-1070" width="100" height="30" as="geometry" />
        </mxCell>
        <mxCell id="-pXGqylEfpOpcV__bSYs-104" value="" style="curved=1;endArrow=classic;html=1;rounded=0;fontSize=18;entryX=0.5;entryY=0;entryDx=0;entryDy=0;" edge="1" parent="1">
          <mxGeometry width="50" height="50" relative="1" as="geometry">
            <mxPoint x="400" y="-1244" as="sourcePoint" />
            <mxPoint x="-50" y="-1001" as="targetPoint" />
            <Array as="points">
              <mxPoint x="60" y="-1201" />
            </Array>
          </mxGeometry>
        </mxCell>
        <mxCell id="-pXGqylEfpOpcV__bSYs-105" value="&lt;font style=&quot;font-size: 12px&quot;&gt;扫风周期和估计转速&lt;/font&gt;" style="text;whiteSpace=wrap;html=1;fontSize=18;" vertex="1" parent="1">
          <mxGeometry x="180" y="-1090" width="120" height="40" as="geometry" />
        </mxCell>
        <mxCell id="-pXGqylEfpOpcV__bSYs-107" value="" style="curved=1;endArrow=classic;html=1;rounded=0;fontSize=18;exitX=0.5;exitY=1;exitDx=0;exitDy=0;entryX=0.5;entryY=0;entryDx=0;entryDy=0;" edge="1" parent="1" target="-pXGqylEfpOpcV__bSYs-33">
          <mxGeometry width="50" height="50" relative="1" as="geometry">
            <mxPoint x="438" y="-1243" as="sourcePoint" />
            <mxPoint x="403" y="-1188" as="targetPoint" />
            <Array as="points" />
          </mxGeometry>
        </mxCell>
        <mxCell id="-pXGqylEfpOpcV__bSYs-108" value="" style="curved=1;endArrow=classic;html=1;rounded=0;fontSize=18;entryX=0.75;entryY=1;entryDx=0;entryDy=0;exitX=0.454;exitY=1;exitDx=0;exitDy=0;exitPerimeter=0;" edge="1" parent="1" source="-pXGqylEfpOpcV__bSYs-4">
          <mxGeometry width="50" height="50" relative="1" as="geometry">
            <mxPoint x="510" y="-1150" as="sourcePoint" />
            <mxPoint x="361.5" y="-1000" as="targetPoint" />
            <Array as="points" />
          </mxGeometry>
        </mxCell>
        <mxCell id="-pXGqylEfpOpcV__bSYs-109" value="" style="curved=1;endArrow=classic;html=1;rounded=0;fontSize=18;entryX=0.25;entryY=0;entryDx=0;entryDy=0;exitX=0.25;exitY=1;exitDx=0;exitDy=0;" edge="1" parent="1" source="-pXGqylEfpOpcV__bSYs-27" target="-pXGqylEfpOpcV__bSYs-8">
          <mxGeometry width="50" height="50" relative="1" as="geometry">
            <mxPoint x="460" y="-1240" as="sourcePoint" />
            <mxPoint x="282.5" y="-988" as="targetPoint" />
            <Array as="points" />
          </mxGeometry>
        </mxCell>
        <mxCell id="-pXGqylEfpOpcV__bSYs-110" value="&lt;font style=&quot;font-size: 12px&quot;&gt;分割索引和估计转速&lt;/font&gt;" style="text;whiteSpace=wrap;html=1;fontSize=18;" vertex="1" parent="1">
          <mxGeometry x="370" y="-1070" width="118" height="40" as="geometry" />
        </mxCell>
        <mxCell id="-pXGqylEfpOpcV__bSYs-111" value="" style="curved=1;endArrow=classic;html=1;rounded=0;fontSize=18;entryX=0.5;entryY=0;entryDx=0;entryDy=0;" edge="1" parent="1" target="-pXGqylEfpOpcV__bSYs-9">
          <mxGeometry width="50" height="50" relative="1" as="geometry">
            <mxPoint x="592" y="-1244" as="sourcePoint" />
            <mxPoint x="480" y="-1010" as="targetPoint" />
            <Array as="points">
              <mxPoint x="640" y="-1160" />
              <mxPoint x="600" y="-1090" />
              <mxPoint x="510" y="-1060" />
              <mxPoint x="470" y="-1030" />
            </Array>
          </mxGeometry>
        </mxCell>
        <mxCell id="-pXGqylEfpOpcV__bSYs-113" value="" style="curved=1;endArrow=classic;html=1;rounded=0;fontSize=18;" edge="1" parent="1">
          <mxGeometry width="50" height="50" relative="1" as="geometry">
            <mxPoint x="630" y="-1244" as="sourcePoint" />
            <mxPoint x="560" y="-1001" as="targetPoint" />
            <Array as="points">
              <mxPoint x="670" y="-1160" />
              <mxPoint x="638" y="-1090" />
            </Array>
          </mxGeometry>
        </mxCell>
        <mxCell id="-pXGqylEfpOpcV__bSYs-114" value="" style="curved=1;endArrow=classic;html=1;rounded=0;fontSize=18;entryX=0.25;entryY=0;entryDx=0;entryDy=0;startArrow=none;" edge="1" parent="1" source="-pXGqylEfpOpcV__bSYs-4">
          <mxGeometry width="50" height="50" relative="1" as="geometry">
            <mxPoint x="521" y="-1149" as="sourcePoint" />
            <mxPoint x="530" y="-999" as="targetPoint" />
            <Array as="points" />
          </mxGeometry>
        </mxCell>
        <mxCell id="-pXGqylEfpOpcV__bSYs-115" value="&lt;font style=&quot;font-size: 12px&quot;&gt;估计转速&lt;/font&gt;" style="text;whiteSpace=wrap;html=1;fontSize=18;" vertex="1" parent="1">
          <mxGeometry x="500" y="-1050" width="60" height="20" as="geometry" />
        </mxCell>
        <mxCell id="-pXGqylEfpOpcV__bSYs-116" value="" style="curved=1;endArrow=classic;html=1;rounded=0;fontSize=18;entryX=0.5;entryY=0;entryDx=0;entryDy=0;" edge="1" parent="1">
          <mxGeometry width="50" height="50" relative="1" as="geometry">
            <mxPoint x="660" y="-1245" as="sourcePoint" />
            <mxPoint x="760" y="-1004" as="targetPoint" />
            <Array as="points" />
          </mxGeometry>
        </mxCell>
        <mxCell id="-pXGqylEfpOpcV__bSYs-117" value="" style="curved=1;endArrow=classic;html=1;rounded=0;fontSize=18;entryX=0.5;entryY=0;entryDx=0;entryDy=0;" edge="1" parent="1">
          <mxGeometry width="50" height="50" relative="1" as="geometry">
            <mxPoint x="680" y="-1245" as="sourcePoint" />
            <mxPoint x="859" y="-1005" as="targetPoint" />
            <Array as="points" />
          </mxGeometry>
        </mxCell>
        <mxCell id="-pXGqylEfpOpcV__bSYs-118" value="" style="curved=1;endArrow=classic;html=1;rounded=0;fontSize=18;entryX=0.5;entryY=0;entryDx=0;entryDy=0;" edge="1" parent="1">
          <mxGeometry width="50" height="50" relative="1" as="geometry">
            <mxPoint x="720" y="-1244" as="sourcePoint" />
            <mxPoint x="1074" y="-1003" as="targetPoint" />
            <Array as="points">
              <mxPoint x="982" y="-1090" />
            </Array>
          </mxGeometry>
        </mxCell>
        <mxCell id="-pXGqylEfpOpcV__bSYs-119" value="" style="curved=1;endArrow=classic;html=1;rounded=0;fontSize=18;entryX=0.5;entryY=0;entryDx=0;entryDy=0;" edge="1" parent="1">
          <mxGeometry width="50" height="50" relative="1" as="geometry">
            <mxPoint x="760" y="-1244" as="sourcePoint" />
            <mxPoint x="1152" y="-1003" as="targetPoint" />
            <Array as="points">
              <mxPoint x="1060" y="-1090" />
            </Array>
          </mxGeometry>
        </mxCell>
        <mxCell id="-pXGqylEfpOpcV__bSYs-120" value="" style="curved=1;endArrow=classic;html=1;rounded=0;fontSize=18;exitX=1;exitY=0.875;exitDx=0;exitDy=0;entryX=0.5;entryY=0;entryDx=0;entryDy=0;exitPerimeter=0;" edge="1" parent="1">
          <mxGeometry width="50" height="50" relative="1" as="geometry">
            <mxPoint x="789" y="-1246" as="sourcePoint" />
            <mxPoint x="1269" y="-998" as="targetPoint" />
            <Array as="points">
              <mxPoint x="1269" y="-1116" />
            </Array>
          </mxGeometry>
        </mxCell>
        <mxCell id="-pXGqylEfpOpcV__bSYs-121" value="&lt;b style=&quot;color: rgb(0, 0, 0); font-family: helvetica; font-size: 12px; font-style: normal; letter-spacing: normal; text-align: center; text-indent: 0px; text-transform: none; word-spacing: 0px; background-color: rgb(255, 255, 255);&quot;&gt;&lt;font style=&quot;font-size: 18px&quot;&gt;健康度计算&lt;/font&gt;&lt;/b&gt;" style="text;whiteSpace=wrap;html=1;fontSize=18;" vertex="1" parent="1">
          <mxGeometry x="-282.5" y="-742" width="120" height="40" as="geometry" />
        </mxCell>
        <mxCell id="-pXGqylEfpOpcV__bSYs-124" value="&lt;font style=&quot;font-size: 12px&quot;&gt;分割索引+估计转速&lt;/font&gt;" style="text;whiteSpace=wrap;html=1;fontSize=18;" vertex="1" parent="1">
          <mxGeometry x="1129" y="-1052" width="121" height="40" as="geometry" />
        </mxCell>
        <mxCell id="-pXGqylEfpOpcV__bSYs-128" value="&lt;font style=&quot;font-size: 24px&quot;&gt;&lt;b&gt;叶片卫士音频算法模块逻辑关系图&lt;/b&gt;&lt;/font&gt;" style="text;html=1;strokeColor=none;fillColor=none;align=center;verticalAlign=middle;whiteSpace=wrap;rounded=0;fontSize=18;" vertex="1" parent="1">
          <mxGeometry x="386" y="-1480" width="368" height="30" as="geometry" />
        </mxCell>
        <mxCell id="-pXGqylEfpOpcV__bSYs-131" value="&lt;font style=&quot;font-size: 12px&quot;&gt;音频&lt;/font&gt;" style="text;whiteSpace=wrap;html=1;fontSize=18;" vertex="1" parent="1">
          <mxGeometry x="271" y="-1052" width="30" height="30" as="geometry" />
        </mxCell>
        <mxCell id="-pXGqylEfpOpcV__bSYs-134" value="&lt;font style=&quot;font-size: 12px&quot;&gt;音频+转速&lt;/font&gt;" style="text;whiteSpace=wrap;html=1;fontSize=18;" vertex="1" parent="1">
          <mxGeometry x="319" y="-1051" width="58" height="30" as="geometry" />
        </mxCell>
        <mxCell id="-pXGqylEfpOpcV__bSYs-136" value="&lt;font style=&quot;font-size: 12px&quot;&gt;音频&lt;/font&gt;" style="text;whiteSpace=wrap;html=1;fontSize=18;" vertex="1" parent="1">
          <mxGeometry x="461" y="-1051" width="30" height="30" as="geometry" />
        </mxCell>
        <mxCell id="-pXGqylEfpOpcV__bSYs-137" value="&lt;font style=&quot;font-size: 12px&quot;&gt;音频+转速&lt;/font&gt;" style="text;whiteSpace=wrap;html=1;fontSize=18;" vertex="1" parent="1">
          <mxGeometry x="553" y="-1051" width="58" height="30" as="geometry" />
        </mxCell>
        <mxCell id="-pXGqylEfpOpcV__bSYs-138" value="&lt;font style=&quot;font-size: 12px&quot;&gt;音频+环境温度+日期&lt;/font&gt;" style="text;whiteSpace=wrap;html=1;fontSize=18;" vertex="1" parent="1">
          <mxGeometry x="690" y="-1052" width="120" height="30" as="geometry" />
        </mxCell>
        <mxCell id="-pXGqylEfpOpcV__bSYs-139" value="&lt;font style=&quot;font-size: 12px&quot;&gt;音频&lt;/font&gt;" style="text;whiteSpace=wrap;html=1;fontSize=18;" vertex="1" parent="1">
          <mxGeometry x="822" y="-1051" width="30" height="30" as="geometry" />
        </mxCell>
        <mxCell id="-pXGqylEfpOpcV__bSYs-140" value="&lt;font style=&quot;font-size: 12px&quot;&gt;音频+机舱振动&lt;/font&gt;" style="text;whiteSpace=wrap;html=1;fontSize=18;" vertex="1" parent="1">
          <mxGeometry x="996" y="-1052" width="81" height="30" as="geometry" />
        </mxCell>
        <mxCell id="-pXGqylEfpOpcV__bSYs-141" value="&lt;font style=&quot;font-size: 12px&quot;&gt;音频+转速&lt;/font&gt;" style="text;whiteSpace=wrap;html=1;fontSize=18;" vertex="1" parent="1">
          <mxGeometry x="1245" y="-1051" width="71" height="30" as="geometry" />
        </mxCell>
        <mxCell id="-pXGqylEfpOpcV__bSYs-142" value="&lt;font style=&quot;font-size: 12px&quot;&gt;音频&lt;/font&gt;" style="text;whiteSpace=wrap;html=1;fontSize=18;" vertex="1" parent="1">
          <mxGeometry x="-43" y="-1052" width="30" height="30" as="geometry" />
        </mxCell>
        <mxCell id="-pXGqylEfpOpcV__bSYs-143" value="" style="curved=1;endArrow=classic;html=1;rounded=0;fontSize=18;exitX=0.124;exitY=1.058;exitDx=0;exitDy=0;entryX=0.5;entryY=0;entryDx=0;entryDy=0;exitPerimeter=0;" edge="1" parent="1">
          <mxGeometry width="50" height="50" relative="1" as="geometry">
            <mxPoint x="422.0799999999999" y="-1243.6799999999998" as="sourcePoint" />
            <mxPoint x="50" y="-1001" as="targetPoint" />
            <Array as="points">
              <mxPoint x="300" y="-1211" />
              <mxPoint x="180" y="-1161" />
            </Array>
          </mxGeometry>
        </mxCell>
        <mxCell id="-pXGqylEfpOpcV__bSYs-144" value="&lt;font style=&quot;font-size: 12px&quot;&gt;音频+转速&lt;/font&gt;" style="text;whiteSpace=wrap;html=1;fontSize=18;" vertex="1" parent="1">
          <mxGeometry x="49" y="-1050" width="58" height="30" as="geometry" />
        </mxCell>
        <mxCell id="-pXGqylEfpOpcV__bSYs-4" value="叶片分割/转速估计" style="rounded=0;whiteSpace=wrap;html=1;" vertex="1" parent="1">
          <mxGeometry x="465" y="-1160" width="130" height="38" as="geometry" />
        </mxCell>
        <mxCell id="-pXGqylEfpOpcV__bSYs-146" value="&lt;font style=&quot;font-size: 12px&quot;&gt;音频&lt;/font&gt;" style="text;whiteSpace=wrap;html=1;fontSize=18;" vertex="1" parent="1">
          <mxGeometry x="518" y="-1203" width="30" height="30" as="geometry" />
        </mxCell>
      </root>
    </mxGraphModel>
  </diagram>
</mxfile>
